# xmcd
#
# Track frame offsets:
#	150
#	13414
#	21951
#	33403
#	48718
#	55313
#	63440
#	76769
#	87228
#	103257
#	111807
#	118606
#	133217
#
# Disc length: 1944 seconds
#
# Revision: 0
# Processed by: cddbd v1.5.1PL0 Copyright (c) Steve Scherf et al.
# Submitted via: dBpowerAMP V4.0
#
DISCID=b507960d
DTITLE=Charlie Daniels - Songs From The Longleaf Pines
DYEAR=2005
DGENRE=Bluegrass
TTITLE0=Walkin' In Jerusalem (Just Like John)
TTITLE1=Preachin', Prayin' Singin'
TTITLE2=I've Found A Hidin' Place
TTITLE3=I'm Working On A Building
TTITLE4=91st Psalm, The (Recitation)
TTITLE5=Keep On The Sunny Side
TTITLE6=Softly And Tenderly
TTITLE7=The Old Account
TTITLE8=I'll Fly Away (Instrumental)
TTITLE9=How Great Thou Art
TTITLE10=23rd Psalm, The (Recitation)
TTITLE11=What Would You Give (In Exchange For Your Soul)?
TTITLE12=The Old Crossroads
EXTD=
EXTT0=
EXTT1=
EXTT2=
EXTT3=
EXTT4=
EXTT5=
EXTT6=
EXTT7=
EXTT8=
EXTT9=
EXTT10=
EXTT11=
EXTT12=
PLAYORDER=
